<svg xmlns="http://www.w3.org/2000/svg" version="1.1" xmlns:xlink="http://www.w3.org/1999/xlink" xmlns:svgjs="http://svgjs.com/svgjs" width="15" height="15"><svg xmlns="http://www.w3.org/2000/svg" width="15" height="15" fill="none" viewBox="0 0 15 15">
<g fill="#151515">
    <path d="M1.5 1a.5.5 0 0 0-.5.5v2a.5.5 0 0 0 1 0V2h1.5a.5.5 0 0 0 0-1zm10 0a.5.5 0 0 0 0 1H13v1.5a.5.5 0 0 0 1 0v-2a.5.5 0 0 0-.5-.5zM2 11.5a.5.5 0 0 0-1 0v2a.5.5 0 0 0 .5.5h2a.5.5 0 0 0 0-1H2zm12 0a.5.5 0 0 0-1 0V13h-1.5a.5.5 0 0 0 0 1h2a.5.5 0 0 0 .5-.5z"></path>
    <path fill-rule="evenodd" d="M7.854 2.146a.5.5 0 0 0-.708 0l-2 2a.5.5 0 0 0 0 .708l2 2a.5.5 0 0 0 .708 0l2-2a.5.5 0 0 0 0-.708zM8.793 4.5 7.5 5.793 6.207 4.5 7.5 3.207zm-3.939.646a.5.5 0 0 0-.708 0l-2 2a.5.5 0 0 0 0 .708l2 2a.5.5 0 0 0 .708 0l2-2a.5.5 0 0 0 0-.708zM4.5 8.793 3.207 7.5 4.5 6.207 5.793 7.5zm6.354-3.647a.5.5 0 0 0-.708 0l-2 2a.5.5 0 0 0 0 .708l2 2a.5.5 0 0 0 .708 0l2-2a.5.5 0 0 0 0-.708zm.939 2.354L10.5 8.793 9.207 7.5 10.5 6.207zm-1.939 2.646-2-2a.5.5 0 0 0-.708 0l-2 2a.5.5 0 0 0 0 .708l2 2a.5.5 0 0 0 .708 0l2-2a.5.5 0 0 0 0-.708zM7.5 11.793 6.207 10.5 7.5 9.207 8.793 10.5z" clip-rule="evenodd"></path>
</g>
</svg><style>@media (prefers-color-scheme: light) { :root { filter: none; } }
</style></svg>